<?xml version="1.0" standalone="no"?><!DOCTYPE svg PUBLIC "-//W3C//DTD SVG 1.1//EN" "http://www.w3.org/Graphics/SVG/1.1/DTD/svg11.dtd"><svg t="1757212202072" class="icon" viewBox="0 0 1024 1024" version="1.1" xmlns="http://www.w3.org/2000/svg" p-id="8612" xmlns:xlink="http://www.w3.org/1999/xlink" width="32" height="32"><path d="M594.673419 405.566946l185.158047 26.002211L645.807007 557.699832l31.718399 177.915086-165.56992-83.984786-165.481915 83.984786 31.630395-177.915086L244.208443 431.569156l185.027064-26.002211 82.71998-161.946392L594.673419 405.566946zM958.70846 243.88252l0 536.102954c0 98.730629-79.971379 178.744987-178.700985 178.744987L243.903497 958.730461c-98.642624 0-178.61298-80.013335-178.61298-178.744987L65.290517 243.88252c0-98.644671 79.969333-178.615027 178.61298-178.615027l536.105001 0C878.73708 65.267493 958.70846 145.236825 958.70846 243.88252zM869.44546 288.643979c0-74.080206-60.119239-134.069485-134.113487-134.069485L288.667004 154.574494c-74.082252 0-134.071532 59.989279-134.071532 134.069485l0 446.709995c0 73.994248 59.989279 134.069485 134.071532 134.069485l446.664969 0c73.994248 0 134.113487-60.075237 134.113487-134.069485L869.44546 288.643979z" p-id="8613"></path></svg>