<?xml version="1.0" standalone="no"?><!DOCTYPE svg PUBLIC "-//W3C//DTD SVG 1.1//EN" "http://www.w3.org/Graphics/SVG/1.1/DTD/svg11.dtd"><svg t="1744642211377" class="icon" viewBox="0 0 1024 1024" version="1.1" xmlns="http://www.w3.org/2000/svg" p-id="4579" xmlns:xlink="http://www.w3.org/1999/xlink" width="32" height="32"><path d="M768 128h-341.333333C354.133333 128 298.666667 183.466667 298.666667 256v42.666667H256c-72.533333 0-128 55.466667-128 128v341.333333c0 72.533333 55.466667 128 128 128h341.333333c72.533333 0 128-55.466667 128-128v-42.666667h42.666667c72.533333 0 128-55.466667 128-128V256c0-72.533333-55.466667-128-128-128z m-128 640c0 25.6-17.066667 42.666667-42.666667 42.666667H256c-25.6 0-42.666667-17.066667-42.666667-42.666667v-341.333333c0-25.6 17.066667-42.666667 42.666667-42.666667h341.333333c25.6 0 42.666667 17.066667 42.666667 42.666667v341.333333z m170.666667-170.666667c0 25.6-17.066667 42.666667-42.666667 42.666667h-42.666667v-213.333333c0-72.533333-55.466667-128-128-128H384V256c0-25.6 17.066667-42.666667 42.666667-42.666667h341.333333c25.6 0 42.666667 17.066667 42.666667 42.666667v341.333333z" p-id="4580"></path></svg>