<?xml version="1.0" standalone="no"?><!DOCTYPE svg PUBLIC "-//W3C//DTD SVG 1.1//EN" "http://www.w3.org/Graphics/SVG/1.1/DTD/svg11.dtd"><svg t="1748425919331" class="icon" viewBox="0 0 1024 1024" version="1.1" xmlns="http://www.w3.org/2000/svg" p-id="9314" xmlns:xlink="http://www.w3.org/1999/xlink" width="32" height="32"><path d="M810.666667 170.666667H213.333333C140.8 170.666667 85.333333 226.133333 85.333333 298.666667v426.666666c0 72.533333 55.466667 128 128 128h597.333334c72.533333 0 128-55.466667 128-128V298.666667c0-72.533333-55.466667-128-128-128z m-25.6 85.333333l-243.2 243.2c-17.066667 17.066667-42.666667 17.066667-59.733334 0L238.933333 256h546.133334zM170.666667 699.733333V307.2l196.266666 196.266667L170.666667 699.733333zM221.866667 768l204.8-204.8c46.933333 42.666667 123.733333 42.666667 170.666666 0l204.8 204.8H221.866667zM853.333333 699.733333l-196.266666-196.266666L853.333333 307.2v392.533333z" p-id="9315" fill="#0674C1"></path></svg>