<?xml version="1.0" standalone="no"?><!DOCTYPE svg PUBLIC "-//W3C//DTD SVG 1.1//EN" "http://www.w3.org/Graphics/SVG/1.1/DTD/svg11.dtd"><svg t="1748834130445" class="icon" viewBox="0 0 1024 1024" version="1.1" xmlns="http://www.w3.org/2000/svg" p-id="4193" xmlns:xlink="http://www.w3.org/1999/xlink" width="32" height="32"><path d="M896 443.733333c0-25.6-12.8-51.2-34.133333-68.266666l-294.4-230.4c-29.866667-25.6-72.533333-25.6-106.666667 0l-298.666667 234.666666c-21.333333 12.8-34.133333 38.4-34.133333 64V768c0 72.533333 55.466667 128 128 128h512c72.533333 0 128-55.466667 128-128v-324.266667zM768 810.666667H256c-29.866667 0-42.666667-12.8-42.666667-42.666667v-320L512 213.333333l294.4 230.4V768c4.266667 29.866667-8.533333 42.666667-38.4 42.666667z" p-id="4194"></path><path d="M281.6 460.8c12.8-17.066667 42.666667-21.333333 59.733333-4.266667l170.666667 140.8 170.666667-140.8c17.066667-12.8 46.933333-12.8 59.733333 4.266667 12.8 17.066667 12.8 46.933333-4.266667 59.733333L537.6 682.666667c-8.533333 8.533333-17.066667 8.533333-25.6 8.533333-8.533333 0-21.333333-4.266667-25.6-8.533333l-200.533333-162.133334c-17.066667-17.066667-21.333333-42.666667-4.266667-59.733333z" p-id="4195"></path></svg>