<?xml version="1.0" standalone="no"?><!DOCTYPE svg PUBLIC "-//W3C//DTD SVG 1.1//EN" "http://www.w3.org/Graphics/SVG/1.1/DTD/svg11.dtd"><svg t="1744551288868" class="icon" viewBox="0 0 1024 1024" version="1.1" xmlns="http://www.w3.org/2000/svg" p-id="5133" xmlns:xlink="http://www.w3.org/1999/xlink" width="32" height="32"><path d="M512 256c-94.293333 0-170.666667 76.373333-170.666667 170.666667s76.373333 170.666667 170.666667 170.666666 170.666667-76.373333 170.666667-170.666666-76.373333-170.666667-170.666667-170.666667z m0 256c-46.933333 0-85.333333-38.4-85.333333-85.333333s38.4-85.333333 85.333333-85.333334 85.333333 38.4 85.333333 85.333334-38.4 85.333333-85.333333 85.333333z" p-id="5134"></path><path d="M512 85.333333C276.48 85.333333 85.333333 276.48 85.333333 512c0 111.786667 43.093333 213.76 113.493334 289.706667A425.258667 425.258667 0 0 0 512 939.093333c235.52 0 426.666667-191.146667 426.666667-426.666666S747.52 85.333333 512 85.333333z m0 768c-70.826667 0-136.96-21.76-191.573333-58.88A297.941333 297.941333 0 0 1 511.573333 725.333333c72.533333 0 139.52 26.026667 191.573334 69.546667A338.432 338.432 0 0 1 512 853.333333z m256-115.626666A381.696 381.696 0 0 0 512 640c-98.133333 0-188.16 37.12-256 97.706667A341.248 341.248 0 0 1 512 170.666667a341.248 341.248 0 0 1 256 567.04z" p-id="5135"></path></svg>